<?xml version="1.0" encoding="utf-8"?>
<!-- Generator: Adobe Illustrator 27.5.0, SVG Export Plug-In . SVG Version: 6.00 Build 0)  -->
<svg version="1.1" xmlns="http://www.w3.org/2000/svg" xmlns:xlink="http://www.w3.org/1999/xlink" x="0px" y="0px"
	 viewBox="0 0 500 500" style="enable-background:new 0 0 500 500;" xml:space="preserve">
<g id="Background_Complete">
	<g>
		<g>
			<g>
				<g>
					<rect y="382.398" style="fill:#E0E0E0;" width="500" height="0.25"/>
					<rect x="343.263" y="392.989" style="fill:#E0E0E0;" width="34.404" height="0.25"/>
					<rect x="91.681" y="393.114" style="fill:#E0E0E0;" width="19.359" height="0.25"/>
					<rect x="211.761" y="392.528" style="fill:#E0E0E0;" width="39.239" height="0.25"/>
					<rect x="193.22" y="388.972" style="fill:#E0E0E0;" width="17.541" height="0.25"/>
					<rect x="371.57" y="389.097" style="fill:#E0E0E0;" width="52.985" height="0.25"/>
					<path style="fill:#E0E0E0;" d="M237.014,337.8H43.915c-3.147,0-5.708-2.561-5.708-5.708V60.66c0-3.147,2.561-5.708,5.708-5.708
						h193.099c3.146,0,5.707,2.561,5.707,5.708v271.432C242.721,335.239,240.16,337.8,237.014,337.8z M43.915,55.203
						c-3.01,0-5.458,2.448-5.458,5.458v271.432c0,3.01,2.448,5.458,5.458,5.458h193.099c3.009,0,5.457-2.448,5.457-5.458V60.66
						c0-3.009-2.448-5.458-5.457-5.458H43.915z"/>
					<path style="fill:#E0E0E0;" d="M453.31,337.8H260.212c-3.146,0-5.707-2.561-5.707-5.708V60.66c0-3.147,2.561-5.708,5.707-5.708
						H453.31c3.148,0,5.708,2.561,5.708,5.708v271.432C459.019,335.239,456.458,337.8,453.31,337.8z M260.212,55.203
						c-3.009,0-5.457,2.448-5.457,5.458v271.432c0,3.01,2.448,5.458,5.457,5.458H453.31c3.01,0,5.458-2.448,5.458-5.458V60.66
						c0-3.009-2.448-5.458-5.458-5.458H260.212z"/>
				</g>
			</g>
		</g>
		<g>
			<path style="fill:#EBEBEB;" d="M281.335,99.857c4.458-9.633,0.919-16.491-9.978-16.491c-6.834,0-15.307,2.699-23.559,7.094
				c-0.932-2.505-3.558-4.007-7.781-4.007c-7.434,0-17.68,4.639-25.718,11.185c-1.945-1.459-4.759-2.354-8.376-2.497
				c-7.114-0.295-15.73,2.37-23.221,6.706c-0.648-0.725-1.762-1.181-3.297-1.248c-4.1-0.169-9.649,2.522-12.406,6.006
				c-0.172,0.219-0.324,0.43-0.477,0.641h8.515h6.775h23.534h11.581h9.005h13.87h2.517h34.405h6.775
				C283.849,104.209,283.121,101.671,281.335,99.857z"/>
			<path style="fill:#EBEBEB;" d="M422.917,119.356c-0.364-0.039-0.733-0.059-1.108-0.059c0.344-3.842-1.647-6.294-5.898-6.294
				c-3.068,0-6.832,1.281-10.669,3.448c1.098-7.456-2.418-12.303-10.378-12.303c-6.422,0-14.551,3.152-22.581,8.294
				c-0.704-2.925-3.069-4.679-7.045-4.679c-6.984,0-16.907,5.417-24.864,13.061c0,0-0.003,0.01-0.01,0
				c-1.719-1.704-4.302-2.758-7.697-2.925c-6.65-0.345-14.906,2.768-22.227,7.841c-0.557-0.857-1.571-1.389-3.021-1.458
				c-3.636-0.187-8.648,2.61-11.558,6.353h8.483h5.751h22.116h10.357h9.223h13.1h24.749h9.647h3.433h13.731h12.32
				C431.89,124.961,429.405,119.997,422.917,119.356z"/>
			<g>
				
					<rect x="158.372" y="164.729" transform="matrix(-1 -1.224647e-16 1.224647e-16 -1 325.1882 368.033)" style="fill:#EBEBEB;" width="8.444" height="38.575"/>
			</g>
			<g>
				
					<rect x="368.397" y="223.523" transform="matrix(-1 -1.224647e-16 1.224647e-16 -1 750.0412 475.2013)" style="fill:#EBEBEB;" width="13.248" height="28.156"/>
				<g>
					<path style="fill:#E0E0E0;" d="M263.726,160.934c0.012-0.029,0.011-0.061,0.021-0.091c0.021-0.066,0.033-0.132,0.039-0.202
						c0.005-0.056,0.007-0.109,0.002-0.165c-0.002-0.029,0.006-0.057,0.001-0.087c-0.007-0.041-0.029-0.074-0.04-0.113
						c-0.01-0.035-0.009-0.072-0.023-0.106c-0.009-0.021-0.024-0.036-0.034-0.056c-0.033-0.066-0.075-0.122-0.12-0.179
						c-0.023-0.029-0.036-0.065-0.062-0.091l-24.515-24.515c-0.001-0.001-0.001-0.001-0.002-0.001
						c-0.082-0.082-0.18-0.143-0.284-0.192c-0.031-0.015-0.064-0.023-0.097-0.035c-0.043-0.015-0.083-0.037-0.128-0.046
						L115.901,110.54c-0.052-0.01-0.104-0.009-0.157-0.012c-0.014-0.001-0.026-0.008-0.04-0.008c-0.007,0-0.012,0.004-0.019,0.004
						c-0.013,0-0.026-0.002-0.038-0.001c-0.009,0.001-0.018,0.004-0.027,0.005c-0.093,0.008-0.184,0.031-0.271,0.064
						c-0.022,0.008-0.042,0.016-0.063,0.026c-0.01,0.005-0.021,0.003-0.03,0.008c-0.008,0.004-0.013,0.012-0.021,0.017
						c-0.086,0.046-0.167,0.1-0.238,0.17c0,0-0.001,0.001-0.001,0.001l-24.516,24.515c0,0,0,0-0.001,0.001l-24.515,24.515
						c-0.092,0.092-0.165,0.203-0.216,0.325c-0.051,0.122-0.077,0.252-0.077,0.382v8.354c0,0.552,0.448,1,1,1h23.516v31.903
						c-1.329,0.427-2.3,1.66-2.3,3.128c0,1.819,1.48,3.3,3.3,3.3c1.819,0,3.3-1.48,3.3-3.3c0-1.468-0.971-2.702-2.3-3.128v-31.903
						h22.516v23.516v24.516v24.517v24.516v24.517v24.516v24.517v24.516h-12.928v17.363h35.743v-16.362h2.702c0.552,0,1-0.447,1-1
						V340.52v-24.517v-24.516v-24.517v-24.516v-24.517v-14.634h17.15v-33.398h75.833v51.91c-2.146,0.813-6.706,3.299-8.568,5.265
						h-15.03v49.196h49.196V258.98c-1.852,1.835-4.401,2.964-7.211,2.964c-5.672,0-10.267-4.595-10.267-10.263
						c0-5.672,4.596-10.267,10.267-10.267c2.809,0,5.358,1.133,7.211,2.964V227.08h-15.029c-1.862-1.966-6.423-4.452-8.569-5.265
						v-51.91h2.081c0.11,0,0.219-0.018,0.323-0.053l24.516-8.354c0.01-0.003,0.017-0.011,0.026-0.015
						c0.011-0.004,0.022-0.005,0.033-0.009c0.04-0.017,0.07-0.048,0.108-0.069c0.063-0.036,0.125-0.072,0.178-0.12
						c0.038-0.034,0.066-0.074,0.099-0.114c0.045-0.056,0.086-0.111,0.118-0.175C263.698,160.974,263.716,160.957,263.726,160.934z
						 M91.189,206.237c-0.717,0-1.3-0.583-1.3-1.3s0.583-1.3,1.3-1.3c0.717,0,1.3,0.583,1.3,1.3S91.906,206.237,91.189,206.237z
						 M228.753,227.08c2.237-1.538,5.634-3.439,6.417-3.544c0.832,0.106,4.245,2.006,6.486,3.544H228.753z M92.189,138.45
						l21.102,21.102H92.189V138.45z M237.287,158.138l-21.102-21.102h21.102V158.138z M235.872,159.552H214.77V138.45
						L235.872,159.552z M212.77,158.138l-21.102-21.102h21.102V158.138z M211.356,159.552h-21.102V138.45L211.356,159.552z
						 M188.254,158.138l-21.102-21.102h21.102V158.138z M186.84,159.552h-21.102V138.45L186.84,159.552z M163.738,158.138
						l-21.102-21.102h21.102V158.138z M162.324,159.552h-21.102V138.45L162.324,159.552z M116.705,159.552v-23.516v-20.28
						l21.898,43.796H116.705z M114.705,158.138l-21.102-21.102h21.102V158.138z M239.287,159.552v-21.102l21.102,21.102H239.287z
						 M213.77,135.036h-24.516h-24.516h-24.516c-0.13,0-0.26,0.027-0.382,0.077c-0.244,0.101-0.439,0.296-0.541,0.541
						c-0.05,0.122-0.077,0.252-0.077,0.382v20.28l-21.708-43.414l110.673,22.134H213.77z M114.705,135.036H93.603l21.102-21.102
						V135.036z M90.189,159.552H69.087l21.102-21.102V159.552z M139.222,339.52h-21.103l21.103-21.103V339.52z M116.705,243.455
						h21.102l-21.102,21.102V243.455z M116.705,267.971h21.102l-21.102,21.103V267.971z M116.705,292.487h21.102l-21.102,21.102
						V292.487z M116.705,317.003h21.102l-21.102,21.103V317.003z M139.222,315.003h-21.103l21.103-21.102V315.003z M139.222,290.487
						h-21.103l21.103-21.103V290.487z M139.222,265.971h-21.103l21.103-21.102V265.971z M139.222,241.455h-21.103l21.103-21.103
						V241.455z M116.705,240.04v-21.102h21.102L116.705,240.04z M116.705,194.422h21.102l-21.102,21.102V194.422z M139.222,192.422
						h-21.103l21.103-21.102V192.422z M116.705,341.52h21.102l-21.102,21.103V341.52z M118.119,216.938l21.103-21.102v21.102
						H118.119z M137.808,169.906l-21.102,21.102v-21.102H137.808z M118.119,364.036l21.103-21.103v21.103H118.119z"/>
					
						<rect x="137.52" y="365.036" transform="matrix(-1 -1.224647e-16 1.224647e-16 -1 291.6698 747.4341)" style="fill:#EBEBEB;" width="16.629" height="17.363"/>
					<path style="fill:#E0E0E0;" d="M436,220.196c-0.037-0.09-0.091-0.171-0.159-0.239l-35.786-35.787
						c-0.001-0.001-0.003-0.001-0.004-0.002c-0.03-0.03-0.071-0.047-0.106-0.072c-0.028-0.02-0.049-0.047-0.081-0.063
						c-0.007-0.003-0.014-0.003-0.021-0.006c-0.022-0.01-0.044-0.015-0.067-0.023c-0.03-0.01-0.06-0.013-0.092-0.019
						c-0.041-0.008-0.081-0.023-0.123-0.024c-0.008,0-0.015-0.005-0.024-0.005c-0.03,0-0.056,0.014-0.085,0.017
						c-0.02,0.002-0.039-0.007-0.059-0.003l-89.472,17.894c-0.033,0.007-0.062,0.023-0.094,0.034
						c-0.024,0.008-0.048,0.015-0.07,0.025c-0.076,0.036-0.148,0.08-0.209,0.141l-17.892,17.893
						c-0.018,0.018-0.027,0.044-0.044,0.064c-0.035,0.042-0.066,0.085-0.091,0.135c-0.007,0.014-0.018,0.025-0.024,0.04
						c-0.01,0.024-0.009,0.05-0.017,0.075c-0.008,0.029-0.025,0.054-0.03,0.084c-0.004,0.022,0.003,0.043,0.001,0.064
						c-0.003,0.04-0.002,0.077,0.002,0.117c0.004,0.052,0.014,0.102,0.029,0.151c0.007,0.021,0.006,0.044,0.014,0.065
						c0.007,0.016,0.02,0.029,0.027,0.045c0.024,0.048,0.054,0.089,0.088,0.13c0.023,0.029,0.044,0.057,0.071,0.082
						c0.039,0.035,0.084,0.061,0.13,0.088c0.027,0.016,0.049,0.038,0.078,0.05c0.008,0.003,0.017,0.004,0.025,0.007
						c0.007,0.003,0.012,0.008,0.019,0.01l17.895,6.097c0.076,0.026,0.155,0.039,0.235,0.039h1.52v63.728
						c-1.561,0.591-4.876,2.397-6.243,3.83h-7.028v9.435c1.01-1.001,2.399-1.617,3.933-1.617c3.091,0,5.598,2.507,5.598,5.598
						c0,3.091-2.507,5.598-5.598,5.598c-1.535,0-2.923-0.616-3.933-1.617v9.435h26.834v-9.435c1.011,0.999,2.401,1.617,3.935,1.617
						c3.092,0,5.599-2.507,5.599-5.599s-2.507-5.599-5.599-5.599c-1.534,0-2.923,0.617-3.935,1.617v-9.434h-5.86
						c-1.367-1.433-4.683-3.239-6.244-3.83v-63.728h49.187v24.377h6.164v-24.377h12.518v17.163c0,0,0,0.001,0,0.001v17.892
						c0,0.001,0,0.002,0,0.003v17.892c0,0.001,0,0.002,0,0.003v17.892c0,0.001,0,0.002,0,0.003v17.893c0,0,0,0.001,0,0.001v17.892
						c0,0.001,0,0.002,0,0.003v17.892c0,0.001,0,0.002,0,0.003v17.893h-9.437v12.673h26.089v-11.943h1.972
						c0.095,0,0.19-0.02,0.279-0.056c0.062-0.026,0.113-0.068,0.165-0.109c0.023-0.018,0.051-0.027,0.073-0.048
						c0.024-0.024,0.035-0.056,0.055-0.083c0.037-0.049,0.078-0.096,0.102-0.154c0.037-0.09,0.057-0.185,0.056-0.281v-17.892
						c0-0.001,0-0.002,0-0.003v-17.893c0,0,0-0.001,0-0.001v-17.891c0-0.001,0-0.002,0-0.003V298.15c0-0.001,0-0.002,0-0.003
						v-17.892c0-0.001,0-0.002,0-0.003V262.36c0,0,0-0.001,0-0.001v-17.893c0,0,0-0.001,0-0.001v-17.163h16.435v23.285
						c-0.969,0.311-1.678,1.211-1.678,2.283c0,1.328,1.08,2.408,2.407,2.408c1.328,0,2.408-1.08,2.408-2.408
						c0-1.072-0.709-1.972-1.679-2.284v-23.285h17.165c0.403,0,0.729-0.327,0.729-0.73v-6.097
						C436.057,220.38,436.037,220.285,436,220.196z M307.625,294.86c1.632-1.12,4.096-2.498,4.665-2.575
						c0.605,0.077,3.081,1.454,4.717,2.575H307.625z M417.433,253.819c-0.522,0-0.948-0.426-0.948-0.949
						c0-0.523,0.426-0.949,0.948-0.949c0.523,0,0.949,0.426,0.949,0.949C418.382,253.394,417.956,253.819,417.433,253.819z
						 M397.777,261.63h-15.403v-15.403L397.777,261.63z M397.776,279.524h-15.402v-15.402L397.776,279.524z M397.776,297.419
						h-15.402v-15.402L397.776,297.419z M397.776,315.314h-15.402v-15.402L397.776,315.314z M397.777,333.207h-15.403v-15.402
						L397.777,333.207z M382.374,335.699l15.402,15.402h-15.402V335.699z M383.407,334.666h15.402v15.402L383.407,334.666z
						 M383.406,316.772h15.403v15.402L383.406,316.772z M383.407,298.878h15.402v15.402L383.407,298.878z M383.407,280.983h15.402
						v15.402L383.407,280.983z M383.407,263.089h15.402v15.402L383.407,263.089z M398.81,260.598l-15.403-15.402h15.403V260.598z
						 M382.374,353.594l15.402,15.402h-15.402V353.594z M383.407,352.56h15.402v15.402L383.407,352.56z M382.374,243.735v-15.403
						l15.403,15.403H382.374z M363.02,219.745h-15.401l15.401-15.402V219.745z M401.302,219.745l15.401-15.402v15.402H401.302z
						 M400.269,218.712V203.31h15.401L400.269,218.712z M398.81,202.58v17.165h-15.983l15.983-31.966V202.58z M380.915,219.745
						h-15.402l15.402-15.402V219.745z M364.479,218.712V203.31h15.402L364.479,218.712z M346.586,218.712V203.31h15.402
						L346.586,218.712z M345.127,219.745h-15.402l15.402-15.402V219.745z M328.691,218.712V203.31h15.402L328.691,218.712z
						 M327.232,219.745H311.83l15.402-15.402V219.745z M310.797,218.712V203.31h15.402L310.797,218.712z M418.162,219.745v-15.403
						l15.403,15.403H418.162z M400.269,201.85v-15.402l15.402,15.402H400.269z M382.374,217.382v-14.801
						c0-0.096-0.019-0.191-0.056-0.281c-0.03-0.072-0.076-0.133-0.126-0.191c-0.012-0.014-0.017-0.032-0.031-0.046
						c-0.008-0.008-0.019-0.01-0.027-0.018c-0.062-0.057-0.131-0.107-0.211-0.14c-0.089-0.037-0.184-0.056-0.279-0.056H363.75
						h-17.894h-17.895h-10.523l80.779-16.156L382.374,217.382z M309.338,219.745h-15.403l15.403-15.403V219.745z M398.81,242.704
						l-15.403-15.403h15.403V242.704z"/>
					
						<rect x="397.567" y="369.725" transform="matrix(-1 -1.224647e-16 1.224647e-16 -1 807.2721 752.1239)" style="fill:#EBEBEB;" width="12.138" height="12.673"/>
				</g>
			</g>
		</g>
	</g>
</g>
<g id="Background_Simple" style="display:none;">
	<path style="display:inline;fill:#407BFF;" d="M427.21,220.24c-8.37,27.18-29.65,47.05-55.83,56.94
		c-49.53,18.69-81.24-11.65-125.48-28.24c-52.27-19.61-70.29,16.38-118.11,27.33c-38.52,8.82-73.52-9.93-69.1-56.66
		c3.34-35.4,27.2-58.97,55.48-68.36c29.75-9.87,54.66-28.07,83.23-40.24c10.09-4.29,20.3-7.7,30.63-10.38
		c21.4-5.54,43.33-7.94,65.87-8.54c22.17-0.59,45.15,2.02,66.21,9.15C407.95,117.42,442.8,169.6,427.21,220.24z"/>
	<path style="display:inline;opacity:0.9;fill:#FFFFFF;" d="M427.21,220.24c-8.37,27.18-29.65,47.05-55.83,56.94
		c-49.53,18.69-81.24-11.65-125.48-28.24c-52.27-19.61-70.29,16.38-118.11,27.33c-38.52,8.82-73.52-9.93-69.1-56.66
		c3.34-35.4,27.2-58.97,55.48-68.36c29.75-9.87,54.66-28.07,83.23-40.24c10.09-4.29,20.3-7.7,30.63-10.38
		c21.4-5.54,43.33-7.94,65.87-8.54c22.17-0.59,45.15,2.02,66.21,9.15C407.95,117.42,442.8,169.6,427.21,220.24z"/>
</g>
<g id="Shadow">
	<ellipse style="fill:#F5F5F5;" cx="250" cy="416.238" rx="193.889" ry="11.323"/>
</g>
<g id="Character_2">
	<g>
		<g>
			<path style="fill:#E4897B;" d="M327.51,195.389c-0.156,2.716-0.479,5.209-0.84,7.791c-0.372,2.559-0.876,5.099-1.425,7.634
				c-1.125,5.071-2.685,10.082-4.886,14.958l-0.409,0.914c-0.2,0.423-0.451,0.879-0.703,1.256c-0.512,0.777-1.072,1.423-1.641,1.995
				c-1.153,1.128-2.344,1.977-3.536,2.736c-2.384,1.502-4.818,2.575-7.252,3.548c-4.909,1.851-9.803,3.213-14.898,4.136
				l-0.992-3.792c2.265-0.859,4.587-1.775,6.831-2.743c2.259-0.949,4.477-1.968,6.601-3.084c2.131-1.084,4.18-2.29,5.952-3.592
				c0.874-0.654,1.671-1.35,2.255-2.03c0.296-0.333,0.534-0.66,0.692-0.942c0.085-0.15,0.126-0.249,0.186-0.396l0.315-0.82
				c1.736-4.347,2.84-9.044,3.828-13.759c0.467-2.37,0.839-4.765,1.189-7.163c0.352-2.376,0.624-4.86,0.836-7.141L327.51,195.389z"
				/>
			<g>
				<path style="fill:#407BFF;" d="M322.123,185.958c-3.19,0.812-5.421,13.938-5.421,13.938l8.79,5.978
					c0,0,8.427-13.242,5.974-16.749C328.911,185.473,326.778,184.773,322.123,185.958z"/>
				<path style="opacity:0.3;" d="M322.123,185.958c-3.19,0.812-5.421,13.938-5.421,13.938l8.79,5.978
					c0,0,8.427-13.242,5.974-16.749C328.911,185.473,326.778,184.773,322.123,185.958z"/>
			</g>
			<g>
				<polygon style="fill:#407BFF;" points="322.411,188.89 319.961,202.12 324.901,205.47 				"/>
				<polygon style="opacity:0.5;" points="322.411,188.89 319.961,202.12 324.901,205.47 				"/>
			</g>
			<path style="fill:#E4897B;" d="M292.598,236.409l-5.49-5.564l-0.721,7.837c0,0,4.116,2.785,6.963,1.288L292.598,236.409z"/>
			<polygon style="fill:#E4897B;" points="280.655,230.014 280.407,236.607 286.387,238.682 287.109,230.845 			"/>
			<polygon style="fill:#E4897B;" points="339.38,406.885 331.641,406.885 331.125,388.963 338.864,388.963 			"/>
			<polygon style="fill:#E4897B;" points="399.214,378.76 392.432,382.488 381.619,367.981 388.401,364.253 			"/>
			<path style="fill:#263238;" d="M390.969,381.576l6.915-5.27c0.252-0.192,0.589-0.173,0.812,0.046l4.957,4.871
				c0.514,0.505,0.435,1.414-0.153,1.847c-2.443,1.796-3.712,2.54-6.753,4.857c-1.871,1.426-4.456,3.703-7.04,5.672
				c-2.527,1.926-4.668-0.481-3.769-1.532c4.033-4.714,3.705-6.725,4.29-9.328C390.334,382.269,390.601,381.856,390.969,381.576z"/>
			<path style="fill:#263238;" d="M331.376,405.989h8.694c0.316,0,0.573,0.22,0.618,0.529l0.991,6.879
				c0.103,0.714-0.511,1.389-1.241,1.376c-3.031-0.052-4.492-0.23-8.316-0.23c-2.352,0-7.218,0.244-10.466,0.244
				c-3.177,0-3.421-3.212-2.069-3.503c6.065-1.304,8.452-3.103,10.495-4.819C330.451,406.155,330.913,405.989,331.376,405.989z"/>
			<g>
				<polygon style="fill:#CE6F64;" points="331.126,388.968 331.391,398.206 339.133,398.206 338.868,388.968 				"/>
				<polygon style="fill:#CE6F64;" points="388.405,364.256 381.62,367.985 387.198,375.461 393.983,371.732 				"/>
			</g>
			<path style="fill:#263238;" d="M347.431,163.389c3.833-0.445,7.333-1.167,8.278,0.889c0.944,2.055-1.09,5.222-2.851,5.222
				c-1.76,0-6.149,0-6.149,0L347.431,163.389z"/>
			<path style="fill:#263238;" d="M353.265,168.445l-0.389,1.467c1.472-0.283,3.778,1.478,3.778,1.478
				S355.292,168.222,353.265,168.445z"/>
			<path style="fill:#263238;" d="M351.573,163.451l1.067,1.079c0.502-1.412,3.19-2.506,3.19-2.506S352.41,161.591,351.573,163.451z
				"/>
			<path style="fill:#263238;" d="M346.34,166.24c3.821,0.54,7.39,0.727,7.783,2.955c0.394,2.228-2.376,4.776-4.079,4.331
				c-1.703-0.445-5.949-1.556-5.949-1.556L346.34,166.24z"/>
			<g>
				<path style="fill:#407BFF;" d="M322.123,185.958c0,0-3.687,1.299,3.698,46.709c12.472,0,25.362,0,31.431,0
					c-0.528-12.792-0.542-20.68,5.572-46.933c0,0-6.585-1.433-13.347-1.758c-5.289-0.255-9.623-0.424-14.272,0.001
					C329.075,184.536,322.123,185.958,322.123,185.958z"/>
				<path style="opacity:0.3;" d="M322.123,185.958c0,0-3.687,1.299,3.698,46.709c12.472,0,25.362,0,31.431,0
					c-0.528-12.792-0.542-20.68,5.572-46.933c0,0-6.585-1.433-13.347-1.758c-5.289-0.255-9.623-0.424-14.272,0.001
					C329.075,184.536,322.123,185.958,322.123,185.958z"/>
			</g>
			<path style="fill:#E4897B;" d="M348.063,167.905c-0.9,4.592-1.799,13.006,1.414,16.071c0,0-1.255,4.658-9.788,4.658
				c-9.383,0-4.484-4.658-4.484-4.658c5.121-1.223,4.989-5.022,4.097-8.59L348.063,167.905z"/>
			<path style="fill:#E4897B;" d="M349.474,183.98c-5.29-0.26-9.62-0.43-14.27,0c-0.31,0.03-0.62,0.06-0.93,0.09
				c-1.14,2.16-1.43,5.48,1.3,10.35c0,0,12.52-5.04,15.78-10.32C350.734,184.05,350.104,184.01,349.474,183.98z"/>
			<g>
				
					<rect x="341.702" y="198.111" transform="matrix(0.9998 0.0195 -0.0195 0.9998 3.9352 -6.7117)" style="fill:#407BFF;" width="9.09" height="0.778"/>
				
					<rect x="341.702" y="198.111" transform="matrix(0.9998 0.0195 -0.0195 0.9998 3.9352 -6.7117)" style="opacity:0.4;fill:#FFFFFF;" width="9.09" height="0.778"/>
			</g>
			<path style="fill:#CE6F64;" d="M344.491,170.957l-5.186,4.424c0.214,0.844,0.381,1.701,0.44,2.533
				c1.956-0.283,4.644-2.43,4.851-4.479C344.701,172.415,344.658,171.433,344.491,170.957z"/>
			<path style="fill:#263238;" d="M330.904,148.25c-2.056-1.278-11.409-0.249-3.39,21.583c1.112,3.028-1.749,2.706-1.721,4.603
				c0.028,1.897,2.25,3.505,5.278,3.479c0,0-4.53-1.387-3.376-3.165c1.154-1.778,3.265-2.583,2.404-4.778
				C329.237,167.778,330.904,148.25,330.904,148.25z"/>
			<path style="fill:#E4897B;" d="M347.748,156.193c1.015,7.613,1.607,10.814-1.435,15.421c-4.575,6.93-14.148,6.511-17.417-0.646
				c-2.942-6.442-4.108-17.81,2.668-22.249C338.241,144.346,346.734,148.58,347.748,156.193z"/>
			<path style="fill:#263238;" d="M329.102,148.944c3.251,5.556,14.662,13.644,23.51,15.943c0,0,4.542-14.637-7.181-19.776
				C335.535,140.773,329.102,148.944,329.102,148.944z"/>
			<path style="fill:#263238;" d="M325.822,232.667c0,0-6.104,59.615-5.597,83.215c0.528,24.548,9.523,80.534,9.523,80.534h10.465
				c0,0-1.656-54.552-0.731-78.66c1.009-26.283,9.357-85.089,9.357-85.089H325.822z"/>
			<g>
				<polygon style="fill:#407BFF;" points="341.119,396.792 328.841,396.792 327.94,392.875 341.69,392.396 				"/>
				<polygon style="opacity:0.3;" points="341.119,396.792 328.841,396.792 327.94,392.875 341.69,392.396 				"/>
			</g>
			<g>
				<path style="fill:#407BFF;" d="M339.379,247.5c-7.72,15.53-1.55,43.86,1.18,54.4c1.4-15.83,3.76-35.18,5.6-49.39
					C344.99,244.47,342.94,240.34,339.379,247.5z"/>
				<path style="opacity:0.8;" d="M339.379,247.5c-7.72,15.53-1.55,43.86,1.18,54.4c1.4-15.83,3.76-35.18,5.6-49.39
					C344.99,244.47,342.94,240.34,339.379,247.5z"/>
			</g>
			<path style="fill:#263238;" d="M334.122,232.667c0,0,7.12,61.977,12.497,81.875c6.384,23.623,38.079,60.252,38.079,60.252
				l9.248-5.084c0,0-21.988-41.12-26.869-53.565c-10.417-26.561-1.5-66.145-9.825-83.478H334.122z"/>
			<g>
				<polygon style="fill:#407BFF;" points="395.278,369.608 383.805,375.915 380.6,372.979 393.762,364.952 				"/>
				<polygon style="opacity:0.3;" points="395.278,369.608 383.805,375.915 380.6,372.979 393.762,364.952 				"/>
			</g>
			<path style="fill:#263238;" d="M336.751,160.536c0.12,0.613-0.107,1.173-0.507,1.251c-0.4,0.079-0.822-0.354-0.943-0.967
				c-0.12-0.613,0.107-1.173,0.507-1.251C336.209,159.491,336.631,159.923,336.751,160.536z"/>
			<path style="fill:#263238;" d="M329.827,161.895c0.12,0.613-0.107,1.173-0.507,1.251c-0.4,0.079-0.823-0.354-0.943-0.967
				c-0.12-0.613,0.107-1.173,0.507-1.251C329.285,160.85,329.707,161.283,329.827,161.895z"/>
			<path style="fill:#263238;" d="M329.068,160.928l-1.554-0.135C327.514,160.792,328.494,161.793,329.068,160.928z"/>
			<path style="fill:#DE5753;" d="M331.864,162.588c0,0-0.522,2.841-1.416,4.338c0.957,0.596,2.264-0.019,2.264-0.019
				L331.864,162.588z"/>
			<path style="fill:#263238;" d="M335.306,168.9c-0.086,0-0.163-0.061-0.18-0.148c-0.02-0.099,0.045-0.195,0.145-0.215
				c2.689-0.528,3.575-2.652,3.584-2.674c0.037-0.094,0.143-0.139,0.238-0.101c0.094,0.038,0.14,0.144,0.102,0.239
				c-0.038,0.095-0.972,2.33-3.853,2.895C335.329,168.899,335.318,168.9,335.306,168.9z"/>
			<path style="fill:#E4897B;" d="M350.711,163.935c-0.247,1.573-1.197,2.885-2.267,3.639c-1.609,1.133-3.07-0.147-3.172-2.009
				c-0.092-1.676,0.634-4.286,2.514-4.679C349.638,160.498,350.993,162.137,350.711,163.935z"/>
			<path style="fill:#263238;" d="M337.867,157.283c-0.091,0-0.182-0.034-0.253-0.101c-1.209-1.152-3.646-1.039-3.668-1.036
				c-0.196,0.011-0.374-0.144-0.386-0.347c-0.011-0.202,0.145-0.374,0.347-0.386c0.105-0.007,2.771-0.134,4.213,1.237
				c0.146,0.14,0.152,0.372,0.013,0.518C338.061,157.245,337.964,157.283,337.867,157.283z"/>
			<path style="fill:#263238;" d="M325.615,157.454c-0.065,0-0.131-0.017-0.189-0.053c-0.174-0.104-0.229-0.33-0.124-0.503
				c1.05-1.735,2.74-1.811,2.811-1.814c0.005-0.001,0.009-0.001,0.013-0.001c0.197,0,0.359,0.156,0.366,0.355
				c0.007,0.202-0.15,0.371-0.352,0.378c-0.062,0.003-1.375,0.079-2.211,1.461C325.861,157.391,325.74,157.454,325.615,157.454z"/>
			<path style="fill:#E4897B;" d="M366.22,194.006c1.857,4.527,3.376,8.996,4.672,13.659c1.321,4.636,2.327,9.398,2.781,14.428
				l0.101,1.922c0.011,0.329,0.047,0.561,0.01,1.21c-0.016,0.587-0.123,0.987-0.207,1.467c-0.417,1.691-1.063,2.912-1.711,4.085
				c-1.311,2.311-2.802,4.255-4.341,6.146c-3.126,3.731-6.417,7.125-10.022,10.309l-2.852-2.689
				c2.747-3.684,5.532-7.424,7.966-11.219c1.217-1.885,2.376-3.814,3.225-5.657c0.415-0.904,0.734-1.837,0.835-2.432
				c-0.008-0.099,0.036-0.27,0.006-0.271c0.009,0.063-0.022-0.287-0.052-0.541l-0.165-1.576c-0.604-4.273-1.8-8.64-3.102-12.979
				c-1.338-4.314-2.877-8.698-4.47-12.867L366.22,194.006z"/>
			<g>
				<path style="fill:#407BFF;" d="M362.824,185.734c3.149,0.958,6.931,11.801,6.931,11.801l-12.217,8.735
					c0,0-4.455-9.051-3.132-13.122C355.784,188.909,359.231,184.641,362.824,185.734z"/>
				<path style="opacity:0.3;" d="M362.824,185.734c3.149,0.958,6.931,11.801,6.931,11.801l-12.217,8.735
					c0,0-4.455-9.051-3.132-13.122C355.784,188.909,359.231,184.641,362.824,185.734z"/>
			</g>
			<path style="fill:#407BFF;" d="M388.357,384.833c-0.031,0-0.061-0.001-0.093-0.004c-0.35-0.03-0.629-0.229-0.832-0.59
				c-0.152-0.272-0.097-0.494-0.022-0.632c0.47-0.869,3.259-1.088,3.575-1.109c0.075-0.016,0.142,0.033,0.176,0.099
				c0.033,0.064,0.025,0.143-0.021,0.2C390.506,383.568,389.321,384.833,388.357,384.833z M390.568,382.903
				c-1.113,0.119-2.588,0.421-2.835,0.879c-0.031,0.058-0.058,0.142,0.02,0.277c0.142,0.253,0.319,0.385,0.544,0.404
				C388.826,384.513,389.658,383.933,390.568,382.903z"/>
			<path style="fill:#407BFF;" d="M390.737,382.879c-0.962,0-2.726-0.457-3.077-1.177c-0.074-0.153-0.15-0.458,0.181-0.78
				c0.21-0.205,0.456-0.297,0.767-0.276c1.121,0.083,2.479,1.849,2.536,1.924c0.04,0.052,0.049,0.121,0.023,0.182
				c-0.024,0.059-0.079,0.102-0.145,0.111C390.939,382.874,390.842,382.879,390.737,382.879z M388.523,381.01
				c-0.166,0-0.307,0.057-0.427,0.174c-0.169,0.165-0.146,0.278-0.107,0.357c0.238,0.487,1.696,0.953,2.638,0.975
				c-0.483-0.564-1.379-1.455-2.047-1.504C388.56,381.01,388.541,381.01,388.523,381.01z"/>
			<path style="fill:#407BFF;" d="M328.471,407.342c-0.77,0-1.48-0.119-1.877-0.478c-0.253-0.227-0.364-0.527-0.331-0.893
				c0.02-0.218,0.127-0.387,0.31-0.487c0.953-0.517,4.033,1.057,4.382,1.238c0.068,0.035,0.107,0.111,0.097,0.188
				c-0.011,0.076-0.069,0.139-0.146,0.153C330.249,407.195,329.323,407.342,328.471,407.342z M327.091,405.74
				c-0.142,0-0.258,0.021-0.342,0.066c-0.075,0.041-0.112,0.102-0.121,0.198c-0.022,0.247,0.047,0.439,0.211,0.587
				c0.47,0.423,1.744,0.495,3.458,0.212C329.235,406.294,327.824,405.74,327.091,405.74z"/>
			<path style="fill:#407BFF;" d="M330.87,407.068c-0.025,0-0.052-0.006-0.075-0.017c-0.923-0.417-2.747-2.086-2.605-2.963
				c0.034-0.207,0.181-0.466,0.689-0.518c0.384-0.037,0.718,0.069,1.016,0.316c0.973,0.811,1.151,2.895,1.158,2.982
				c0.005,0.065-0.024,0.127-0.077,0.164C330.945,407.057,330.908,407.068,330.87,407.068z M329.027,403.931
				c-0.036,0-0.073,0.002-0.11,0.006c-0.335,0.033-0.356,0.168-0.363,0.212c-0.086,0.526,1.152,1.839,2.093,2.409
				c-0.09-0.607-0.348-1.856-0.986-2.388C329.467,404.01,329.259,403.931,329.027,403.931z"/>
			<path style="fill:#E4897B;" d="M355.692,243.641l-8.29,1.088l5.812,5.307c0,0,4.705-1.599,5.231-4.773L355.692,243.641z"/>
			<polygon style="fill:#E4897B;" points="342.843,249.372 347.949,253.551 353.214,250.036 347.402,244.729 			"/>
			<path style="fill:#263238;" d="M335.992,159.568l-1.555-0.135C334.437,159.433,335.418,160.434,335.992,159.568z"/>
			<g>
				<path style="fill:#407BFF;" d="M357.723,230.823l0.804,2.813c0.11,0.218-0.148,0.441-0.512,0.441h-32.349
					c-0.283,0-0.518-0.139-0.536-0.317l-0.284-2.813c-0.02-0.195,0.226-0.36,0.536-0.36h31.829
					C357.446,230.587,357.653,230.682,357.723,230.823z"/>
				<path style="opacity:0.6;fill:#FFFFFF;" d="M357.723,230.823l0.804,2.813c0.11,0.218-0.148,0.441-0.512,0.441h-32.349
					c-0.283,0-0.518-0.139-0.536-0.317l-0.284-2.813c-0.02-0.195,0.226-0.36,0.536-0.36h31.829
					C357.446,230.587,357.653,230.682,357.723,230.823z"/>
			</g>
			<path style="fill:#263238;" d="M353.449,234.382h0.852c0.17,0,0.299-0.088,0.287-0.195l-0.4-3.655
				c-0.012-0.107-0.16-0.195-0.33-0.195h-0.852c-0.17,0-0.299,0.087-0.287,0.195l0.4,3.655
				C353.13,234.294,353.279,234.382,353.449,234.382z"/>
			<path style="fill:#263238;" d="M328.062,234.382h0.853c0.17,0,0.299-0.088,0.287-0.195l-0.4-3.655
				c-0.012-0.107-0.16-0.195-0.33-0.195h-0.853c-0.17,0-0.299,0.087-0.287,0.195l0.4,3.655
				C327.744,234.294,327.892,234.382,328.062,234.382z"/>
			<path style="fill:#263238;" d="M340.755,234.382h0.852c0.17,0,0.299-0.088,0.287-0.195l-0.4-3.655
				c-0.012-0.107-0.16-0.195-0.33-0.195h-0.853c-0.17,0-0.299,0.087-0.287,0.195l0.4,3.655
				C340.437,234.294,340.586,234.382,340.755,234.382z"/>
		</g>
		<g>
			<path style="fill:#2C4EA5;" d="M253.803,217.643l-0.979-0.208c0.956-4.486,3.297-8.477,6.771-11.541l0.662,0.75
				C256.945,209.565,254.713,213.369,253.803,217.643z"/>
			
				<rect x="241.749" y="222.074" transform="matrix(0.2083 -0.9781 0.9781 0.2083 -28.2184 415.0091)" style="fill:#2C4EA5;" width="1" height="5.724"/>
			<g>
				<path style="fill:#407BFF;" d="M283.51,236.792c4.262-2.803,7.334-7.421,7.946-13.038c0.898-8.24-4.18-16.169-12.045-18.786
					c-10.291-3.425-20.969,2.892-23.164,13.196c-1.018,4.781-0.017,9.522,2.425,13.338l-24.446-5.207
					c-2.744-0.585-5.442,1.166-6.026,3.91l-15.706,73.729c-0.585,2.744,1.166,5.442,3.91,6.026l24.446,5.207
					c-2.75-4.297-3.673-9.766-1.943-15.145c2.538-7.891,10.407-13.061,18.656-12.246c10.793,1.067,17.969,11.187,15.774,21.491
					c-1.019,4.781-3.865,8.702-7.65,11.191l24.446,5.208c2.744,0.584,5.442-1.166,6.026-3.91l15.706-73.729
					c0.585-2.744-1.166-5.442-3.91-6.026L283.51,236.792z"/>
				<path style="opacity:0.4;" d="M283.51,236.792c4.262-2.803,7.334-7.421,7.946-13.038c0.898-8.24-4.18-16.169-12.045-18.786
					c-10.291-3.425-20.969,2.892-23.164,13.196c-1.018,4.781-0.017,9.522,2.425,13.338l-24.446-5.207
					c-2.744-0.585-5.442,1.166-6.026,3.91l-15.706,73.729c-0.585,2.744,1.166,5.442,3.91,6.026l24.446,5.207
					c-2.75-4.297-3.673-9.766-1.943-15.145c2.538-7.891,10.407-13.061,18.656-12.246c10.793,1.067,17.969,11.187,15.774,21.491
					c-1.019,4.781-3.865,8.702-7.65,11.191l24.446,5.208c2.744,0.584,5.442-1.166,6.026-3.91l15.706-73.729
					c0.585-2.744-1.166-5.442-3.91-6.026L283.51,236.792z"/>
			</g>
			<g>
				<path style="fill:#407BFF;" d="M267.851,328.243c3.585-3.63,5.627-8.786,5.055-14.408c-0.839-8.246-7.458-14.943-15.695-15.864
					c-10.778-1.205-19.905,7.198-19.905,17.733c0,4.888,1.967,9.316,5.151,12.54h-24.994c-2.805,0-5.079,2.274-5.079,5.079v75.383
					c0,2.805,2.274,5.079,5.079,5.079h75.383c2.805,0,5.079-2.274,5.079-5.079v-75.383c0-2.805-2.274-5.079-5.079-5.079H267.851z"/>
				<path style="opacity:0.4;fill:#FFFFFF;" d="M267.851,328.243c3.585-3.63,5.627-8.786,5.055-14.408
					c-0.839-8.246-7.458-14.943-15.695-15.864c-10.778-1.205-19.905,7.198-19.905,17.733c0,4.888,1.967,9.316,5.151,12.54h-24.994
					c-2.805,0-5.079,2.274-5.079,5.079v75.383c0,2.805,2.274,5.079,5.079,5.079h75.383c2.805,0,5.079-2.274,5.079-5.079v-75.383
					c0-2.805-2.274-5.079-5.079-5.079H267.851z"/>
			</g>
		</g>
	</g>
</g>
<g id="Character_1">
	<g>
		<polygon style="fill:#E4897B;" points="157.438,407.206 164.724,407.206 166.663,390.333 159.377,390.333 		"/>
		<polygon style="fill:#E4897B;" points="106.165,407.206 113.451,407.206 119.127,390.333 111.841,390.333 		"/>
		<path style="fill:#263238;" d="M114.423,406.362l-8.883,0c-0.298,0-0.556,0.207-0.62,0.498l-1.439,6.476
			c-0.149,0.672,0.379,1.307,1.067,1.296c2.858-0.049,4.943-0.217,8.543-0.217c2.215,0,6.777,0.23,9.836,0.23
			c2.991,0,3.458-3.024,2.206-3.298c-5.614-1.228-7.728-2.922-9.526-4.537C115.282,406.519,114.859,406.362,114.423,406.362z"/>
		<path style="fill:#263238;" d="M164.673,406.362l-7.957,0c-0.298,0-0.556,0.207-0.62,0.498l-1.439,6.476
			c-0.149,0.671,0.361,1.308,1.048,1.296c2.87-0.049,7.018-0.217,10.625-0.217c4.218,0,7.861,0.23,12.808,0.23
			c2.991,0,3.821-3.024,2.569-3.298c-5.7-1.247-10.354-1.38-15.279-4.418C165.893,406.6,165.302,406.362,164.673,406.362z"/>
		<path style="fill:#E4897B;" d="M156.965,217.63c0.894,5.706,1.641,11.398,2.267,17.13c0.321,2.864,0.602,5.735,0.858,8.613
			c0.126,1.441,0.26,2.88,0.359,4.328l0.28,4.062c0.064,0.703,0.272,1.378,0.666,2.118c0.404,0.732,1.024,1.496,1.807,2.227
			c1.581,1.47,3.736,2.798,6.071,3.908c2.34,1.126,4.874,2.075,7.476,2.905c2.578,0.855,5.332,1.552,7.929,2.15l-0.494,5.448
			c-1.588,0.002-3.033-0.074-4.54-0.204c-1.492-0.127-2.986-0.282-4.478-0.508c-2.983-0.454-5.968-1.114-8.957-2.106
			c-2.975-1.02-5.993-2.32-8.863-4.482c-1.422-1.095-2.811-2.419-3.984-4.085c-1.174-1.658-2.06-3.698-2.444-5.828l-2.525-17.153
			c-0.841-5.638-1.636-11.307-2.36-16.95L156.965,217.63z"/>
		<path style="fill:#263238;" d="M143.633,215.549c-2.455,6.519,3.426,28.368,3.426,28.368l16.186-8.094
			c0,0-0.764-10.894-4.464-19.267C155.04,208.092,146.328,208.395,143.633,215.549z"/>
		<path style="fill:#E4897B;" d="M180.803,264.376l7.951,0.528l-3.714,8.534c0,0-5.102-0.003-6.546-5.109L180.803,264.376z"/>
		<polygon style="fill:#E4897B;" points="193.049,267.598 188.643,273.573 185.04,273.438 188.754,264.904 		"/>
		<g>
			<polygon style="fill:#CE6F64;" points="166.661,390.337 165.663,399.035 158.374,399.035 159.372,390.337 			"/>
			<polygon style="fill:#CE6F64;" points="111.838,390.337 119.127,390.337 116.197,399.035 108.908,399.035 			"/>
		</g>
		<path style="fill:#263238;" d="M152.285,210.563c0,0,8.599,22.002,0.431,62.976c-11.742,0-33.257,0-38.97,0
			c-0.269-5.982,3.49-35.164-2.28-63.352c0,0,6.68-1.34,13.046-1.647c4.979-0.24,12.189-0.399,16.566,0.001
			C146.849,209.067,152.285,210.563,152.285,210.563z"/>
		<g>
			<path style="fill:#407BFF;" d="M119.408,223.657c-1.27-6.43-3.75-5.32-6.1-2.15c1.12,9.07,1.43,17.91,1.39,25.7
				C116.298,244.477,121.538,234.437,119.408,223.657z"/>
			<path style="opacity:0.8;" d="M119.408,223.657c-1.27-6.43-3.75-5.32-6.1-2.15c1.12,9.07,1.43,17.91,1.39,25.7
				C116.298,244.477,121.538,234.437,119.408,223.657z"/>
		</g>
		<path style="fill:#E4897B;" d="M126.153,189.887c1.045,5.33,2.088,15.097-1.641,18.653c0,0,1.457,5.407,11.361,5.407
			c10.891,0,5.205-5.406,5.205-5.406c-5.944-1.419-5.79-5.829-4.755-9.971L126.153,189.887z"/>
		<path style="fill:#CE6F64;" d="M130.299,193.43l6.019,5.135c-0.248,0.98-0.442,1.974-0.511,2.941
			c-2.271-0.328-5.39-2.821-5.631-5.198C130.056,195.121,130.106,193.982,130.299,193.43z"/>
		<path style="fill:#263238;" d="M143.094,173.49c3.585,1.517,5.533,11.571,0.947,13.88
			C139.454,189.68,136.303,170.616,143.094,173.49z"/>
		<path style="fill:#E4897B;" d="M125.519,181.865c0.443,7.217,0.336,11.464,3.981,15.169c5.483,5.572,14.392,2.267,16.114-4.937
			c1.55-6.485,0.565-17.198-6.5-20.071C132.154,169.196,125.076,174.648,125.519,181.865z"/>
		<path style="fill:#263238;" d="M126.022,188.938c3.811,1.569,11.002-10.183-0.062-14.242
			C113.725,170.208,119.862,186.402,126.022,188.938z"/>
		<path style="fill:#263238;" d="M127.684,177.542c6.458,1.958,15.561-0.022,16.729-3.271c1.042-2.896,1.962-1.623,3.729,0.271
			c4.861,5.208,14.556,3.125,6.361-4.764c1.853,2.257-1.953,8.328-4.736-0.32c-2.138-6.643-10.565-8.538-13.301-3.958
			c-3.252,5.444-24.797-6.778-14.352,9.833C123.975,180.105,127.684,177.542,127.684,177.542z"/>
		<path style="fill:#263238;" d="M122.663,174.139c0,0-2.237-0.607-4.917-2.875C117.746,171.264,117.955,175.556,122.663,174.139z"
			/>
		<path style="fill:#E4897B;" d="M122.259,189.821c1.024,1.659,2.718,2.691,4.283,3.035c2.354,0.518,3.396-1.62,2.63-3.771
			c-0.69-1.936-2.747-4.539-5.055-4.092C121.843,185.432,121.088,187.924,122.259,189.821z"/>
		<g>
			<path style="fill:#407BFF;" d="M152.716,273.539c0,0,28.413,39.374,27.62,61.593c-0.824,23.111-11.939,62.219-11.939,62.219
				h-12.343c0,0,5.054-37.757,4.505-60.455c-0.599-24.744-33.46-44.268-33.46-63.357
				C139.15,273.539,152.716,273.539,152.716,273.539z"/>
			<path style="opacity:0.6;fill:#FFFFFF;" d="M152.716,273.539c0,0,28.413,39.374,27.62,61.593
				c-0.824,23.111-11.939,62.219-11.939,62.219h-12.343c0,0,5.054-37.757,4.505-60.455c-0.599-24.744-33.46-44.268-33.46-63.357
				C139.15,273.539,152.716,273.539,152.716,273.539z"/>
		</g>
		<g>
			<path style="fill:#407BFF;" d="M138.892,273.539c0,0,14.478,40.579,9.939,61.44c-4.971,22.844-29.206,62.372-29.206,62.372
				H106.28c0,0,17.856-37.684,20.692-60.301c3.079-24.547-13.227-45.255-13.227-63.51
				C128.67,273.539,138.892,273.539,138.892,273.539z"/>
			<path style="opacity:0.6;fill:#FFFFFF;" d="M138.892,273.539c0,0,14.478,40.579,9.939,61.44
				c-4.971,22.844-29.206,62.372-29.206,62.372H106.28c0,0,17.856-37.684,20.692-60.301c3.079-24.547-13.227-45.255-13.227-63.51
				C128.67,273.539,138.892,273.539,138.892,273.539z"/>
		</g>
		<g>
			<polygon style="fill:#407BFF;" points="121.986,397.639 104.541,397.639 104.541,392.944 124.041,392.639 			"/>
			<polygon style="opacity:0.4;fill:#FFFFFF;" points="121.986,397.639 104.541,397.639 104.541,392.944 124.041,392.639 			"/>
		</g>
		<g>
			<polygon style="fill:#407BFF;" points="171.152,397.639 153.708,397.639 153.708,392.889 173.208,392.639 			"/>
			<polygon style="opacity:0.4;fill:#FFFFFF;" points="171.152,397.639 153.708,397.639 153.708,392.889 173.208,392.639 			"/>
		</g>
		<path style="fill:#263238;" d="M136.466,183.883c0,0.588,0.311,1.064,0.696,1.064c0.384,0,0.695-0.476,0.695-1.064
			c0-0.588-0.311-1.064-0.695-1.064C136.778,182.818,136.466,183.295,136.466,183.883z"/>
		<path style="fill:#263238;" d="M143.109,183.883c0,0.588,0.311,1.064,0.695,1.064c0.384,0,0.696-0.476,0.696-1.064
			c0-0.588-0.311-1.064-0.696-1.064C143.421,182.818,143.109,183.295,143.109,183.883z"/>
		<path style="fill:#DE5753;" d="M140.997,184.175c0,0,1.336,3.39,2.807,5.026c-1.04,0.97-2.807,0.527-2.807,0.527V184.175z"/>
		<path style="fill:#263238;" d="M139.285,191.351c-2.765,0-4.032-1.896-4.085-1.977c-0.052-0.08-0.029-0.186,0.05-0.239
			c0.078-0.052,0.186-0.03,0.239,0.05c0.012,0.018,1.224,1.82,3.795,1.82c0.095,0,0.172,0.077,0.172,0.172
			C139.457,191.273,139.38,191.351,139.285,191.351z"/>
		<path style="fill:#263238;" d="M134.464,181.74c-0.072,0-0.145-0.023-0.208-0.07c-0.152-0.115-0.182-0.331-0.067-0.484
			c1.153-1.522,2.745-1.425,2.81-1.424c0.19,0.013,0.333,0.178,0.32,0.368c-0.013,0.19-0.177,0.339-0.367,0.32l0,0
			c-0.05-0.001-1.294-0.063-2.213,1.152C134.672,181.693,134.569,181.74,134.464,181.74z"/>
		<g>
			<path style="fill:#407BFF;" d="M159.232,325.858l59.925-45.734c2.23-1.702,2.658-4.889,0.956-7.119l-15.164-19.869
				c-0.71,5.052-3.57,9.804-8.386,12.76c-7.064,4.337-16.403,3.138-22.133-2.852c-7.497-7.837-6.355-20.191,2.02-26.582
				c3.886-2.966,8.599-4.089,13.093-3.513l-15.164-19.869c-1.702-2.23-4.889-2.658-7.119-0.956l-59.925,45.734
				c-2.23,1.702-2.658,4.889-0.956,7.12l45.734,59.925C153.814,327.132,157.002,327.56,159.232,325.858z"/>
			<path style="opacity:0.2;" d="M159.232,325.858l59.925-45.734c2.23-1.702,2.658-4.889,0.956-7.119l-15.164-19.869
				c-0.71,5.052-3.57,9.804-8.386,12.76c-7.064,4.337-16.403,3.138-22.133-2.852c-7.497-7.837-6.355-20.191,2.02-26.582
				c3.886-2.966,8.599-4.089,13.093-3.513l-15.164-19.869c-1.702-2.23-4.889-2.658-7.119-0.956l-59.925,45.734
				c-2.23,1.702-2.658,4.889-0.956,7.12l45.734,59.925C153.814,327.132,157.002,327.56,159.232,325.858z"/>
		</g>
		<path style="fill:#263238;" d="M146.017,181.601c-0.128,0-0.251-0.071-0.311-0.194c-0.666-1.371-1.895-1.553-1.947-1.56
			c-0.188-0.026-0.321-0.199-0.296-0.387c0.025-0.188,0.2-0.323,0.384-0.297c0.067,0.008,1.646,0.226,2.48,1.943
			c0.083,0.171,0.012,0.378-0.16,0.461C146.119,181.589,146.068,181.601,146.017,181.601z"/>
		<path style="fill:#E4897B;" d="M118.737,220.433c-0.892,2.173-1.887,4.581-2.73,6.916c-0.88,2.351-1.696,4.72-2.469,7.086
			c-0.766,2.372-1.434,4.746-2.022,7.112l-0.41,1.775l-0.352,1.762c-0.132,0.591-0.207,1.169-0.297,1.75l-0.135,0.873l-0.034,0.218
			c-0.015,0.1-0.004,0.022-0.011,0.042c-0.011-0.017-0.01,0.01-0.019,0.027c-0.057,0.236,0.136,1.167,0.482,2.082
			c0.345,0.942,0.84,1.968,1.393,2.993c1.113,2.064,2.449,4.167,3.869,6.239c2.851,4.135,5.992,8.297,9.149,12.319l-3.846,3.89
			c-4.213-3.412-8.113-7.024-11.781-11.083c-1.823-2.037-3.595-4.158-5.23-6.552c-0.812-1.208-1.599-2.47-2.314-3.923
			c-0.697-1.474-1.404-3.053-1.625-5.44c-0.019-0.309-0.037-0.61-0.025-0.954l0.016-0.448l0.018-0.27l0.074-1.079
			c0.051-0.719,0.092-1.446,0.186-2.145l0.255-2.117l0.345-2.079c0.494-2.754,1.093-5.465,1.842-8.105
			c0.727-2.649,1.568-5.249,2.491-7.813c0.473-1.278,0.959-2.55,1.47-3.816c0.507-1.287,1.029-2.487,1.659-3.837L118.737,220.433z"
			/>
		<path style="fill:#263238;" d="M109.945,210.667c-6.501,2.502-11.166,26.279-11.166,26.279l15.482,6.1
			c0,0,5.19-11.951,6.93-20.784C123.024,212.961,117.32,207.829,109.945,210.667z"/>
		<path style="fill:#407BFF;" d="M116.832,407.636c-0.674,0-1.4-0.14-1.906-0.262c-0.067-0.017-0.119-0.071-0.13-0.141
			c-0.011-0.068,0.02-0.137,0.079-0.174c0.265-0.167,2.617-1.608,3.421-1.196c0.125,0.064,0.278,0.201,0.296,0.488
			c0.024,0.386-0.096,0.692-0.357,0.912C117.905,407.541,117.386,407.636,116.832,407.636z M115.427,407.131
			c1.237,0.249,2.188,0.204,2.587-0.132c0.175-0.146,0.252-0.352,0.234-0.626c-0.008-0.134-0.063-0.179-0.109-0.202
			C117.723,405.954,116.383,406.578,115.427,407.131z"/>
		<path style="fill:#407BFF;" d="M114.967,407.379c-0.033,0-0.065-0.01-0.094-0.028c-0.053-0.034-0.083-0.095-0.078-0.158
			c0.007-0.089,0.181-2.191,1.027-2.883c0.221-0.18,0.467-0.261,0.735-0.222c0.413,0.05,0.521,0.305,0.549,0.451
			c0.154,0.813-1.304,2.409-2.058,2.818C115.023,407.372,114.995,407.379,114.967,407.379z M116.437,404.425
			c-0.142,0-0.272,0.05-0.396,0.151c-0.543,0.443-0.775,1.669-0.86,2.283c0.75-0.569,1.678-1.775,1.587-2.255
			c-0.008-0.044-0.028-0.146-0.252-0.175C116.489,404.427,116.463,404.425,116.437,404.425z"/>
		<path style="fill:#407BFF;" d="M167.702,407.636c-0.802,0-1.672-0.138-2.289-0.261c-0.072-0.014-0.127-0.072-0.137-0.145
			c-0.01-0.073,0.026-0.144,0.092-0.178c0.33-0.171,3.259-1.655,4.144-1.163c0.171,0.096,0.27,0.254,0.285,0.46
			c0.026,0.344-0.083,0.626-0.323,0.839C169.095,407.524,168.426,407.636,167.702,407.636z M165.989,407.13
			c1.607,0.268,2.808,0.198,3.256-0.2c0.158-0.14,0.226-0.32,0.208-0.555c-0.007-0.09-0.04-0.146-0.109-0.184
			C168.865,405.921,167.193,406.556,165.989,407.13z"/>
		<path style="fill:#407BFF;" d="M165.447,407.379c-0.036,0-0.071-0.011-0.101-0.032c-0.05-0.036-0.077-0.096-0.071-0.157
			c0.008-0.083,0.204-2.046,1.131-2.807c0.283-0.232,0.604-0.333,0.957-0.296c0.474,0.048,0.611,0.289,0.643,0.482
			c0.133,0.823-1.608,2.4-2.488,2.794C165.495,407.374,165.471,407.379,165.447,407.379z M167.224,404.425
			c-0.219,0-0.415,0.074-0.599,0.225c-0.609,0.5-0.868,1.674-0.961,2.247c0.897-0.54,2.081-1.778,2.001-2.273
			c-0.006-0.04-0.026-0.162-0.337-0.193C167.293,404.427,167.258,404.425,167.224,404.425z"/>
		<path style="fill:#E4897B;" d="M123.489,270.655l7.148,1.901l-5.926,7.177c0,0-5.726-2.97-4.491-6.179L123.489,270.655z"/>
		<polygon style="fill:#E4897B;" points="135.812,278.526 130.637,284.145 124.711,279.733 130.637,272.556 		"/>
	</g>
</g>
</svg>
